<svg width="30" height="30" viewBox="0 0 30 30" fill="none" xmlns="http://www.w3.org/2000/svg">
<g clip-path="url(#clip0_101_33)">
<path d="M0 26.1318C0 28.2684 1.73186 30 3.86822 30H26.1318C28.2684 30 30 28.2681 30 26.1318V3.86822C30 1.73162 28.2681 0 26.1318 0H3.86822C1.73162 0 0 1.73186 0 3.86822V26.1318Z" fill="#563D7C"/>
<path d="M12.4403 13.2701V9.02163H16.18C16.5362 9.02163 16.8796 9.05131 17.2103 9.11067C17.541 9.17003 17.8336 9.27603 18.088 9.42867C18.3424 9.58131 18.5459 9.79331 18.6986 10.0647C18.8512 10.336 18.9275 10.6837 18.9275 11.1077C18.9275 11.8709 18.6986 12.4221 18.2406 12.7613C17.7827 13.1005 17.1976 13.2701 16.4853 13.2701H12.4403ZM8.44629 5.91797V24.082H17.2485C18.0626 24.082 18.8554 23.9803 19.6271 23.7768C20.3988 23.5732 21.0857 23.2595 21.6877 22.8355C22.2898 22.4115 22.7689 21.8645 23.1251 21.1946C23.4812 20.5247 23.6593 19.7318 23.6593 18.816C23.6593 17.6797 23.3837 16.7087 22.8325 15.9031C22.2813 15.0975 21.4461 14.5336 20.3267 14.2114C21.1408 13.8213 21.7556 13.321 22.1711 12.7104C22.5866 12.0999 22.7944 11.3367 22.7944 10.4208C22.7944 9.57282 22.6545 8.86052 22.3746 8.28388C22.0948 7.70724 21.7005 7.24508 21.1917 6.8974C20.6829 6.54972 20.0723 6.29957 19.36 6.14693C18.6477 5.99429 17.859 5.91797 16.9941 5.91797H8.44629ZM12.4403 20.9784V15.9922H16.7906C17.6555 15.9922 18.3509 16.1914 18.8766 16.59C19.4024 16.9886 19.6653 17.6542 19.6653 18.587C19.6653 19.0619 19.5847 19.452 19.4236 19.7573C19.2625 20.0625 19.0462 20.3042 18.7749 20.4823C18.5035 20.6604 18.1898 20.7876 17.8336 20.8639C17.4774 20.9402 17.1043 20.9784 16.7142 20.9784H12.4403Z" fill="white"/>
</g>
<defs>
<clipPath id="clip0_101_33">
<rect width="30" height="30" fill="white"/>
</clipPath>
</defs>
</svg>
