<svg width="30" height="30" viewBox="0 0 30 30" fill="none" xmlns="http://www.w3.org/2000/svg">
<g clip-path="url(#clip0_101_95)">
<path d="M30 23.235C29.5634 23.4002 29.0814 23.3998 28.6451 23.234C28.2087 23.0682 27.8481 22.7484 27.6313 22.335L23.3188 16.3713L22.6938 15.5375L17.69 22.3425C17.4862 22.7386 17.1452 23.0469 16.7306 23.2098C16.3161 23.3726 15.8564 23.379 15.4375 23.2275L21.885 14.5775L15.8875 6.76378C16.3188 6.60837 16.7904 6.60631 17.223 6.75794C17.6556 6.90958 18.0227 7.20564 18.2625 7.59628L22.7325 13.6338L27.2275 7.62128C27.4329 7.23226 27.774 6.93226 28.1861 6.77831C28.5981 6.62437 29.0524 6.6272 29.4625 6.78628L27.135 9.87503L23.9825 13.9788C23.895 14.0569 23.8249 14.1526 23.7769 14.2597C23.729 14.3667 23.7042 14.4827 23.7042 14.6C23.7042 14.7173 23.729 14.8333 23.7769 14.9404C23.8249 15.0475 23.895 15.1432 23.9825 15.2213L29.9875 23.2363L30 23.235ZM0.002515 14.47L0.527515 11.8763C1.97002 6.74753 7.85002 4.61378 11.895 7.78878C14.2638 9.65003 14.855 12.285 14.7388 15.255H1.39502C1.17877 20.5588 5.00627 23.7613 9.90001 22.125C10.6933 21.8395 11.4034 21.3616 11.9667 20.7342C12.53 20.1068 12.9288 19.3494 13.1275 18.53C13.3863 17.6975 13.8125 17.555 14.595 17.795C14.4646 18.8105 14.1056 19.7832 13.5451 20.6399C12.9846 21.4967 12.237 22.2151 11.3588 22.7413C9.90804 23.5348 8.24355 23.8493 6.6033 23.6399C4.96304 23.4304 3.43101 22.7077 2.22627 21.575C1.03505 20.2343 0.31511 18.5406 0.176265 16.7525C0.176265 16.4588 0.076265 16.1838 0.008765 15.92C0.00268003 15.4371 -0.000236696 14.9542 1.49953e-05 14.4713L0.002515 14.47ZM1.41126 14.1125H13.4788C13.4038 10.2675 10.9775 7.54003 7.74126 7.51503C4.13876 7.46503 1.56127 10.1325 1.40252 14.095L1.41126 14.1125Z" fill="white"/>
</g>
<defs>
<clipPath id="clip0_101_95">
<rect width="30" height="30" fill="white"/>
</clipPath>
</defs>
</svg>
