<svg width="20" height="28" viewBox="0 0 20 28" fill="none" xmlns="http://www.w3.org/2000/svg">
<path d="M0.4375 22.0625L0.596875 21.8403L8.11562 7.57716L8.13156 7.42622L4.8175 1.20122C4.75683 1.08739 4.6619 0.995515 4.54614 0.938597C4.43039 0.881679 4.29966 0.8626 4.17247 0.884058C4.04527 0.905517 3.92804 0.966427 3.83737 1.05817C3.74669 1.14992 3.68716 1.26785 3.66719 1.39529L0.4375 22.0625Z" fill="#FFC24A"/>
<path d="M0.53125 21.8937L0.65125 21.6594L8.09219 7.54436L4.78656 1.29499C4.73205 1.18631 4.64379 1.09821 4.53501 1.04391C4.42622 0.9896 4.30277 0.972004 4.18314 0.993754C4.06352 1.0155 3.95416 1.07543 3.87145 1.16455C3.78875 1.25368 3.73714 1.3672 3.72437 1.48811L0.53125 21.8937Z" fill="#FFA712"/>
<path d="M10.5475 12.1344L13.015 9.60314L10.5466 4.89595C10.4922 4.79464 10.4114 4.70997 10.3128 4.65094C10.2142 4.5919 10.1014 4.56073 9.9864 4.56073C9.87144 4.56073 9.75864 4.5919 9.66 4.65094C9.56136 4.70997 9.48057 4.79464 9.42624 4.89595L8.10718 7.41032V7.62501L10.5475 12.1344Z" fill="#F4BD62"/>
<path d="M10.5035 12.0313L12.9025 9.57502L10.5035 5.00002C10.4642 4.90099 10.3971 4.81544 10.3103 4.75367C10.2235 4.6919 10.1207 4.65655 10.0143 4.6519C9.90787 4.64724 9.80237 4.67347 9.71051 4.72742C9.61865 4.78137 9.54436 4.86074 9.49659 4.95596L8.17097 7.5144L8.13159 7.64471L10.5035 12.0313Z" fill="#FFA50E"/>
<path d="M0.439392 22.0634L0.51158 21.9903L0.773142 21.8844L10.3919 12.3012L10.5138 11.9694L8.1147 7.39624L0.439392 22.0634Z" fill="#F6820C"/>
<path d="M10.855 26.8962L19.5625 22.0409L17.0744 6.73062C17.0565 6.62269 17.0093 6.52176 16.9379 6.43891C16.8664 6.35607 16.7736 6.29451 16.6694 6.26099C16.5653 6.22747 16.4539 6.2233 16.3476 6.24892C16.2412 6.27455 16.144 6.32898 16.0666 6.40624L0.4375 22.0625L9.09344 26.8953C9.36254 27.0455 9.66558 27.1243 9.97375 27.1243C10.2819 27.1243 10.585 27.0455 10.8541 26.8953" fill="#FDE068"/>
<path d="M19.4828 22.0007L17.0153 6.80565C17.011 6.70242 16.9761 6.6028 16.9151 6.5194C16.8541 6.436 16.7697 6.37257 16.6727 6.33714C16.5756 6.30171 16.4702 6.29587 16.3698 6.32036C16.2694 6.34485 16.1786 6.39856 16.1088 6.47471L0.53125 22.0335L9.09156 26.8147C9.35853 26.9636 9.65915 27.0418 9.96484 27.0418C10.2705 27.0418 10.5712 26.9636 10.8381 26.8147L19.4828 22.0007Z" fill="#FCCA3F"/>
<path d="M10.855 26.75C10.5859 26.9001 10.2829 26.979 9.97469 26.979C9.66652 26.979 9.36348 26.9001 9.09438 26.75L0.50875 21.9894L0.4375 22.0625L9.09344 26.8953C9.36254 27.0455 9.66558 27.1243 9.97375 27.1243C10.2819 27.1243 10.585 27.0455 10.8541 26.8953L19.5625 22.0409L19.5409 21.9097L10.855 26.75Z" fill="#EEAB37"/>
</svg>
