<svg width="30" height="30" viewBox="0 0 30 30" fill="none" xmlns="http://www.w3.org/2000/svg">
<g clip-path="url(#clip0_101_37)">
<path d="M25.5 0H4.5C2.01472 0 0 2.01472 0 4.5V25.5C0 27.9853 2.01472 30 4.5 30H25.5C27.9853 30 30 27.9853 30 25.5V4.5C30 2.01472 27.9853 0 25.5 0Z" fill="#F7DF1E"/>
<path d="M18.9844 21.6797C19.5703 22.6758 20.3906 23.3789 21.7383 23.3789C22.9102 23.3789 23.6719 22.793 23.6719 21.9727C23.6719 21.0352 22.9102 20.6836 21.6211 20.0977L20.918 19.8047C18.8672 18.9258 17.5195 17.8711 17.5195 15.5859C17.5195 13.4766 19.1016 11.8359 21.6211 11.8359C23.4375 11.8359 24.7266 12.4805 25.6055 14.1211L23.4375 15.5273C22.9688 14.6484 22.4414 14.2969 21.6211 14.2969C20.8008 14.2969 20.2734 14.8242 20.2734 15.5273C20.2734 16.3477 20.8008 16.6992 22.0312 17.2266L22.7344 17.5195C25.1367 18.5742 26.4844 19.5703 26.4844 21.9727C26.4844 24.4922 24.4922 25.8984 21.7969 25.8984C19.1602 25.8984 17.4609 24.668 16.6406 23.0273L18.9844 21.6797ZM9.02344 21.9141C9.49219 22.6758 9.84375 23.3789 10.8398 23.3789C11.7773 23.3789 12.3633 23.0273 12.3633 21.6211V11.8945H15.1758V21.5039C15.1758 24.4336 13.4766 25.7227 10.957 25.7227C8.67188 25.7227 7.38281 24.5508 6.73828 23.1445L9.02344 21.9141Z" fill="black"/>
</g>
<defs>
<clipPath id="clip0_101_37">
<rect width="30" height="30" fill="white"/>
</clipPath>
</defs>
</svg>
