<svg width="12" height="28" viewBox="0 0 12 28" fill="none" xmlns="http://www.w3.org/2000/svg">
<path d="M6.58128 27.125L5.87722 26.8915C5.87722 26.8915 5.97097 23.329 4.6819 23.0787C3.83815 22.0962 4.80659 -18.866 7.89097 22.939C7.30576 23.2359 6.85798 23.7475 6.64128 24.3669C6.52513 25.2816 6.50502 26.206 6.58128 27.125Z" fill="url(#paint0_linear_107_225)"/>
<path d="M6.96187 23.6834C8.83648 22.2723 10.2721 20.3581 11.1019 18.1633C11.9316 15.9686 12.1215 13.5834 11.6494 11.285C10.2712 5.2053 7.00781 3.20655 6.65625 2.44342C6.35293 1.96823 6.09402 1.46611 5.88281 0.94342L6.1425 17.8831C6.1425 17.8831 5.60437 23.06 6.96187 23.6834Z" fill="url(#paint1_linear_107_225)"/>
<path d="M5.51905 23.9084C5.51905 23.9084 -0.219383 20 0.112492 13.0859C0.143451 11.0015 0.621371 8.94806 1.51397 7.0642C2.40657 5.18035 3.69307 3.50998 5.28655 2.16594C5.47277 2.00773 5.62072 1.80938 5.71928 1.58579C5.81784 1.36221 5.86445 1.11919 5.85562 0.875C6.2128 1.64375 6.15468 12.3528 6.19218 13.6053C6.33749 18.4775 5.92124 22.9887 5.51905 23.9084Z" fill="url(#paint2_linear_107_225)"/>
<defs>
<linearGradient id="paint0_linear_107_225" x1="1.84844" y1="14.2365" x2="9.94063" y2="16.9826" gradientUnits="userSpaceOnUse">
<stop offset="0.231" stop-color="#999875"/>
<stop offset="0.563" stop-color="#9B9977"/>
<stop offset="0.683" stop-color="#A09F7E"/>
<stop offset="0.768" stop-color="#A9A889"/>
<stop offset="0.837" stop-color="#B7B69A"/>
<stop offset="0.896" stop-color="#C9C7B0"/>
<stop offset="0.948" stop-color="#DEDDCB"/>
<stop offset="0.994" stop-color="#F8F6EB"/>
<stop offset="1" stop-color="#FBF9EF"/>
</linearGradient>
<linearGradient id="paint1_linear_107_225" x1="4.81589" y1="0.822376" x2="8.39342" y2="23.162" gradientUnits="userSpaceOnUse">
<stop stop-color="#48A547"/>
<stop offset="1" stop-color="#3F9143"/>
</linearGradient>
<linearGradient id="paint2_linear_107_225" x1="-0.381127" y1="13.7703" x2="9.21945" y2="10.5551" gradientUnits="userSpaceOnUse">
<stop stop-color="#41A247"/>
<stop offset="0.352" stop-color="#4BA74B"/>
<stop offset="0.956" stop-color="#67B554"/>
<stop offset="1" stop-color="#69B655"/>
</linearGradient>
</defs>
</svg>
