<svg width="30" height="30" viewBox="0 0 30 30" fill="none" xmlns="http://www.w3.org/2000/svg">
<g clip-path="url(#clip0_101_93)">
<path d="M22.2647 28.1297C22.1531 28.1887 22.1625 28.2075 22.2694 28.1531C22.3041 28.1391 22.3331 28.1194 22.3584 28.0959C22.3584 28.0762 22.3584 28.0762 22.2647 28.1297ZM22.4897 28.0078C22.4363 28.0519 22.4362 28.0519 22.5 28.0228C22.5337 28.0031 22.5638 27.9844 22.5638 27.9787C22.5638 27.9534 22.5488 27.9591 22.4897 28.0078ZM22.6359 27.9197C22.5825 27.9637 22.5825 27.9637 22.6463 27.9347C22.6809 27.915 22.71 27.8944 22.71 27.8897C22.71 27.8662 22.695 27.8709 22.6359 27.9197ZM22.7841 27.8325C22.7306 27.8766 22.7306 27.8766 22.7925 27.8466C22.8272 27.8278 22.8562 27.8081 22.8562 27.8025C22.8562 27.7791 22.8412 27.7837 22.7841 27.8325ZM22.9838 27.7003C22.8816 27.7687 22.8459 27.8128 22.9397 27.7641C23.0025 27.7256 23.1094 27.6412 23.0906 27.6412C23.0503 27.6562 23.0166 27.6816 22.9828 27.7003H22.9838ZM14.0184 0.0103086C13.95 0.0149961 13.7447 0.0337461 13.5647 0.0487461C9.30094 0.434996 5.31188 2.73 2.78344 6.26531C1.38563 8.20312 0.478125 10.4541 0.135937 12.8175C0.015 13.6425 0 13.8862 0 15.0047C0 16.1222 0.015 16.3622 0.135937 17.1872C0.9525 22.8225 4.96125 27.5531 10.395 29.3062C11.3728 29.6184 12.3975 29.8341 13.5647 29.9662C14.0184 30.015 15.9806 30.015 16.4344 29.9662C18.4519 29.7412 20.1553 29.2434 21.8409 28.3837C22.0997 28.2525 22.1484 28.2178 22.1137 28.1887C21.2887 27.1003 20.4788 26.0109 19.6678 24.9122L17.2706 21.675L14.2678 17.2266C13.2666 15.7378 12.2616 14.2528 11.2406 12.7791C11.2303 12.7791 11.2172 14.7562 11.2116 17.1675C11.2012 21.3909 11.2012 21.5625 11.1478 21.66C11.0944 21.7772 11.0062 21.8747 10.8891 21.9291C10.7962 21.9731 10.7128 21.9825 10.2694 21.9825H9.76219L9.63 21.9C9.5475 21.8466 9.47906 21.7725 9.435 21.6853L9.37125 21.5531L9.37594 15.6741L9.38625 9.795L9.47906 9.67781C9.53813 9.60562 9.61125 9.54656 9.69375 9.5025C9.81656 9.44343 9.86531 9.43406 10.3725 9.43406C10.9678 9.43406 11.0662 9.4575 11.2228 9.62906C12.4378 11.4403 13.6491 13.2562 14.8406 15.0778C16.7897 18.0328 19.4503 22.065 20.7581 24.0431L23.1366 27.6422L23.2538 27.5644C24.3966 26.8022 25.4363 25.8947 26.3334 24.8597C28.2234 22.6959 29.4497 20.0344 29.865 17.1937C29.9859 16.3687 30.0009 16.1241 30.0009 15.0066C30.0009 13.8881 29.9859 13.6491 29.865 12.8241C29.0484 7.18875 25.0397 2.45812 19.6059 0.704059C18.5897 0.382496 17.5444 0.163121 16.4859 0.0506211C16.2019 0.0215586 14.2631 -0.0131289 14.0194 0.0121836L14.0184 0.0103086ZM20.1562 9.0825C20.2978 9.15 20.4047 9.2775 20.4534 9.42375C20.4787 9.5025 20.4834 11.1328 20.4787 14.805L20.4684 20.0775L19.5412 18.6525L18.6084 17.2266V13.3987C18.6084 10.9172 18.6188 9.52593 18.6319 9.4575C18.6759 9.30093 18.7828 9.16968 18.9253 9.08718C19.0416 9.02812 19.0866 9.02343 19.5506 9.02343C19.9847 9.02343 20.0587 9.02812 20.1562 9.0825Z" fill="white"/>
</g>
<defs>
<clipPath id="clip0_101_93">
<rect width="30" height="30" fill="white"/>
</clipPath>
</defs>
</svg>
