<svg width="26" height="28" viewBox="0 0 26 28" fill="none" xmlns="http://www.w3.org/2000/svg">
<path d="M14.0992 1.15505C13.4338 0.780811 12.5662 0.782489 11.9002 1.15505C8.56459 2.99588 5.22889 4.83726 1.89265 6.67725C1.24346 7.01877 0.805598 7.71592 0.812582 8.4395V19.562C0.807895 20.2997 1.26833 21.0036 1.93426 21.3404C2.89254 21.8503 3.82356 22.4118 4.79916 22.8877C5.9261 23.4415 7.33603 23.5639 8.47675 22.9864C9.40272 22.5078 9.814 21.4433 9.81278 20.465C9.82028 16.7943 9.814 13.1235 9.81569 9.45275C9.83772 9.28963 9.71519 9.11525 9.53725 9.11919C9.11097 9.11244 8.68412 9.11525 8.25784 9.11806C8.09678 9.10288 7.93956 9.23666 7.95175 9.39856C7.94603 13.0456 7.95287 16.6938 7.94828 20.3414C7.95756 20.846 7.61669 21.3309 7.13043 21.5013C6.00737 21.895 2.80185 19.8136 2.80185 19.8136C2.68422 19.7592 2.60952 19.6316 2.62105 19.5048C2.62105 15.8353 2.62162 12.1656 2.62105 8.49659C2.60488 8.34867 2.69605 8.21544 2.83189 8.15504C6.15656 6.32506 9.4795 4.49051 12.8042 2.6594C12.9197 2.58233 13.0806 2.58256 13.1958 2.65996C16.5205 4.49051 19.844 6.32339 23.1692 8.15345C23.3056 8.21375 23.3928 8.34922 23.379 8.49659C23.3784 12.1656 23.3801 15.8353 23.3778 19.5043C23.3877 19.6342 23.3206 19.76 23.1993 19.817C19.9057 21.6371 16.5746 23.3984 13.3108 25.2714C13.1684 25.353 13.007 25.4456 12.8475 25.3556C11.9892 24.8808 11.1413 24.3876 10.2858 23.9083C10.1928 23.8502 10.0744 23.8253 9.9774 23.8903C9.59387 24.0924 9.23312 24.2561 8.79269 24.4304C8.17412 24.6753 8.27294 24.7754 8.83084 25.1005C9.83125 25.6666 10.8333 26.2305 11.8337 26.7973C12.4923 27.2083 13.3772 27.2375 14.057 26.8577C17.3932 25.0192 20.7284 23.1785 24.0652 21.34C24.7293 21.0013 25.1921 20.3002 25.1874 19.5619V8.4395C25.1939 7.7306 24.7727 7.04588 24.1431 6.6993C20.7959 4.8495 17.447 3.00373 14.0992 1.15505Z" fill="#8CC84B"/>
<path d="M19.133 9.50581C17.8236 8.80531 16.2659 8.768 14.8108 8.85959C13.7595 8.96347 12.6539 9.25353 11.8881 10.0071C11.1026 10.7646 10.9316 11.9878 11.3047 12.9767C11.5721 13.6755 12.2451 14.1299 12.9411 14.3703C13.8376 14.6868 14.7793 14.7847 15.7212 14.8826C16.5803 14.9718 17.4397 15.0612 18.2654 15.3164C18.6028 15.4282 18.9956 15.5992 19.0989 15.9662C19.1943 16.4008 19.0897 16.9061 18.7368 17.208C17.6159 18.0952 14.498 17.9592 13.3905 17.261C12.9428 16.9635 12.7499 16.4369 12.6714 15.9351C12.6627 15.7787 12.5368 15.6353 12.367 15.6472C11.9418 15.6421 11.5167 15.6432 11.0915 15.6466C10.9432 15.6342 10.789 15.7397 10.7808 15.8911C10.6934 18.1896 12.8044 19.1916 14.7849 19.4122C15.9164 19.52 17.0727 19.5138 18.1869 19.271C19.0244 19.0803 19.8643 18.7291 20.4408 18.084C21.1518 17.3 21.2916 16.1327 20.9728 15.1561C20.729 14.4274 20.0324 13.96 19.3202 13.7195C18.3518 13.3874 17.2041 13.2089 16.327 13.1254C15.0521 13.004 13.5371 13.0536 13.1762 12.2158C13.0323 11.7772 13.1548 11.2325 13.5579 10.9627C14.6245 10.2392 16.7953 10.3353 17.8998 10.8758C18.407 11.1297 18.7009 11.6514 18.8222 12.178C18.8447 12.3327 18.9488 12.4941 19.1279 12.4873C19.5501 12.4958 19.9724 12.4896 20.3945 12.4902C20.5395 12.5003 20.6984 12.4184 20.7267 12.2699C20.7088 11.1693 20.1467 10.0426 19.133 9.50581Z" fill="#8CC84B"/>
</svg>
