<svg width="24" height="21" viewBox="0 0 24 21" fill="none" xmlns="http://www.w3.org/2000/svg">
<path d="M12.0004 12.0779C13.1597 12.0779 14.0995 11.1382 14.0995 9.97888C14.0995 8.8196 13.1597 7.87982 12.0004 7.87982C10.8411 7.87982 9.90137 8.8196 9.90137 9.97888C9.90137 11.1382 10.8411 12.0779 12.0004 12.0779Z" fill="#00D8FF"/>
<path fill-rule="evenodd" clip-rule="evenodd" d="M12.1547 5.55437C15.7336 5.57875 19.6383 5.83984 22.3186 8.23C22.3973 8.30031 22.4733 8.37343 22.5473 8.4489C23.1797 9.09343 23.5101 10.1341 22.9997 10.9905C21.9525 12.7487 19.6106 13.5156 17.3433 13.9877C13.9523 14.6936 10.4067 14.6992 7.01716 14.0777C5.06669 13.7195 3.07216 13.0919 1.68607 11.7789C1.14654 11.268 0.685287 10.5958 0.757474 9.84765C0.874662 8.63734 2.03576 7.86062 3.0131 7.33468C5.72763 5.87406 9.03513 5.54734 12.1547 5.55437ZM11.895 6.10421C8.50872 6.12718 4.84357 6.34328 2.22888 8.50843C2.13747 8.5839 2.04935 8.66312 1.96451 8.74609C1.90966 8.79953 1.85669 8.85531 1.8056 8.9125C1.34669 9.42812 1.18872 10.2564 1.62185 10.8756C2.05779 11.4986 2.71966 11.9481 3.40122 12.3147C5.95029 13.6853 8.96247 13.9286 11.8992 13.9389C14.8725 13.9497 17.9386 13.6787 20.565 12.3208C21.6112 11.7794 22.7887 10.9844 22.747 9.96062C22.7086 9.02125 21.7926 8.44093 21.1068 8.02656C20.9212 7.91453 20.7304 7.81093 20.5368 7.71343C17.9297 6.40703 14.8743 6.09765 11.895 6.10421Z" fill="#00D8FF"/>
<path fill-rule="evenodd" clip-rule="evenodd" d="M16.7414 0.0170067C18.0506 0.050288 18.7289 1.62435 18.8184 2.78685C18.8362 3.01794 18.8428 3.24998 18.84 3.48201C18.8372 3.73326 18.8236 3.98451 18.8016 4.23482C18.5255 7.33419 17.1103 10.2859 15.4439 13.0117C13.8141 15.6779 11.8266 18.3367 9.12281 19.5723C8.2289 19.9811 7.16578 20.2333 6.37453 19.7772C5.28984 19.1523 5.17125 17.6908 5.19141 16.5822C5.19656 16.3098 5.21437 16.0375 5.2425 15.7661C5.65922 11.7536 7.69312 7.95247 10.2384 4.67779C11.7234 2.76716 13.4902 0.872006 15.6909 0.185757C16.0373 0.0774753 16.3125 0.0118505 16.7414 0.0170067ZM16.6786 0.566382C15.1416 0.590757 13.7616 1.72982 12.5395 2.91341C9.32672 6.02451 6.95906 10.1622 6.00656 14.5014C5.93297 14.8375 5.87109 15.1759 5.82562 15.5167C5.79047 15.7806 5.76469 16.0459 5.75109 16.3122C5.74031 16.524 5.73656 16.7364 5.74312 16.9487C5.74781 17.1147 5.75859 17.2806 5.77687 17.4456C5.79047 17.5717 5.80875 17.6973 5.83172 17.822C5.84906 17.9143 5.86922 18.0062 5.89266 18.0976C5.91187 18.1717 5.93344 18.2453 5.95781 18.3184C6.14953 18.8964 6.64359 19.4486 7.30687 19.4668C8.85422 19.509 10.3111 18.3808 11.5706 17.1545C13.7817 15.0025 15.4294 12.2983 16.7166 9.45576C17.7553 7.16076 18.7055 4.66607 18.1748 2.13998C18.1547 2.04435 18.1312 1.94966 18.1045 1.85591C18.0825 1.77951 18.0577 1.70404 18.0305 1.62951C17.8242 1.06748 17.3391 0.564975 16.6786 0.566382Z" fill="#00D8FF"/>
<path fill-rule="evenodd" clip-rule="evenodd" d="M7.36355 0.0376393C9.03417 0.0699831 10.5346 1.20389 11.8668 2.47373C14.2978 4.79076 16.0907 7.73826 17.451 10.8405C18.5048 13.2437 19.4742 15.9414 18.6126 18.4773C18.3412 19.2765 17.6545 20.0078 16.739 20.0265C15.0604 20.0603 13.5046 18.8397 12.1546 17.5258C8.76792 14.2286 6.25355 9.87576 5.39198 5.25951C5.33011 4.92951 5.28089 4.5967 5.24714 4.26248C5.21948 3.98967 5.20214 3.71545 5.19745 3.44123C5.1937 3.21998 5.19839 2.99873 5.21386 2.77842C5.22417 2.63123 5.23917 2.48498 5.25933 2.3392C5.27855 2.20233 5.30292 2.06592 5.33339 1.93092C5.35355 1.84139 5.37605 1.7528 5.40183 1.66467C5.65448 0.800765 6.31167 0.0310768 7.36355 0.0376393ZM7.30027 0.587483C6.32198 0.609046 5.87433 1.76264 5.78433 2.57217C5.76605 2.73811 5.7548 2.90545 5.74964 3.0728C5.74308 3.28655 5.74589 3.50076 5.75667 3.71451C5.91042 6.8078 7.29323 9.79842 8.96198 12.5369C10.5332 15.115 12.4307 17.6828 15.0407 19.0028C15.7945 19.3839 16.7104 19.6834 17.3615 19.3234C18.1781 18.8715 18.2784 17.7948 18.322 16.9923C18.3337 16.7739 18.3351 16.5545 18.3281 16.3356C18.3196 16.0609 18.2981 15.7867 18.2657 15.5139C17.9648 12.9653 16.836 10.5536 15.5395 8.27451C13.926 5.43951 11.9493 2.61389 9.15183 1.1378C8.57245 0.832171 7.94527 0.582327 7.30027 0.587483Z" fill="#00D8FF"/>
</svg>
