<svg width="30" height="30" viewBox="0 0 30 30" fill="none" xmlns="http://www.w3.org/2000/svg">
<path d="M25.5 0H4.5C2.01472 0 0 2.01472 0 4.5V25.5C0 27.9853 2.01472 30 4.5 30H25.5C27.9853 30 30 27.9853 30 25.5V4.5C30 2.01472 27.9853 0 25.5 0Z" fill="#CC6699"/>
<path d="M15.1172 5.15616C9.49219 7.08976 5.85938 11.0155 6.21094 13.3593C6.5625 15.703 10.0781 17.578 11.6602 18.8085C9.60938 19.8632 7.03125 21.4452 7.08985 23.496C7.20703 26.3085 10.2539 25.4296 11.543 24.6093C12.832 23.789 14.1211 21.5038 13.3008 19.1015C15.1172 18.6327 16.6992 19.2187 17.168 19.5702C18.9844 20.8593 18.0469 22.3241 17.4023 22.5585C16.7578 22.7929 17.168 22.9101 17.5781 22.7929C17.9883 22.6757 18.8672 22.0898 18.8672 21.0937C18.8672 18.5741 16.1719 17.4023 12.832 18.2812C10.8984 16.2304 8.26172 15.2929 8.37891 13.0663C8.4375 12.246 8.73047 10.1366 13.9453 7.49991C19.1602 4.86319 22.8516 5.91788 22.3828 8.32023C21.6797 11.953 15.3516 14.414 13.125 12.3046C13.0078 12.0702 12.5977 11.8944 12.832 12.539C14.0039 15.4687 23.4961 14.121 23.9063 7.91007C24.0234 4.62882 19.2773 3.74991 15.1172 5.15616ZM10.0781 23.9062C8.61328 24.3749 8.67188 23.4374 8.73047 23.0859C8.90625 22.0898 9.72656 20.8593 12.1875 19.6288C12.8906 21.8554 11.3086 23.5546 10.0781 23.9062Z" fill="white"/>
</svg>
