<svg width="28" height="17" viewBox="0 0 28 17" fill="none" xmlns="http://www.w3.org/2000/svg">
<path d="M7.4375 5.84375C8.3125 2.34375 10.5 0.59375 14 0.59375C19.25 0.59375 19.9063 4.53125 22.5313 5.1875C24.2813 5.625 25.8125 4.96875 27.125 3.21875C26.25 6.71875 24.0625 8.46875 20.5625 8.46875C15.3125 8.46875 14.6562 4.53125 12.0312 3.875C10.2812 3.4375 8.75 4.09375 7.4375 5.84375ZM0.875 13.7187C1.75 10.2187 3.9375 8.46875 7.4375 8.46875C12.6875 8.46875 13.3438 12.4062 15.9688 13.0625C17.7188 13.5 19.25 12.8437 20.5625 11.0937C19.6875 14.5937 17.5 16.3437 14 16.3437C8.75 16.3437 8.09375 12.4062 5.46875 11.75C3.71875 11.3125 2.1875 11.9687 0.875 13.7187Z" fill="#44A8B3"/>
</svg>
