<svg width="28" height="28" viewBox="0 0 28 28" fill="none" xmlns="http://www.w3.org/2000/svg">
<path d="M25.895 0.875H2.105C1.42569 0.875 0.875 1.42569 0.875 2.105V25.895C0.875 26.5743 1.42569 27.125 2.105 27.125H25.895C26.5743 27.125 27.125 26.5743 27.125 25.895V2.105C27.125 1.42569 26.5743 0.875 25.895 0.875Z" fill="#3178C6"/>
<path fill-rule="evenodd" clip-rule="evenodd" d="M16.1047 21.2741V24.1503C16.6273 24.4083 17.1842 24.5898 17.7585 24.6894C18.422 24.8119 19.0956 24.8721 19.7703 24.8694C20.428 24.8725 21.0841 24.8062 21.7278 24.6716C22.3058 24.5548 22.8572 24.3323 23.3544 24.0153C23.816 23.7174 24.1964 23.3096 24.4616 22.8284C24.9365 21.8322 24.9992 20.6888 24.636 19.6466C24.4827 19.2568 24.2543 18.901 23.9638 18.5994C23.6519 18.2786 23.2977 18.002 22.911 17.7772C22.4657 17.5164 22.003 17.2865 21.5263 17.0891C21.1513 16.9334 20.8138 16.7822 20.5138 16.6353C20.2473 16.5077 19.9923 16.3575 19.7516 16.1863C19.563 16.0541 19.3993 15.8897 19.2678 15.7006C19.1543 15.529 19.0951 15.327 19.0981 15.1212C19.0956 14.9318 19.1484 14.7458 19.25 14.5859C19.3604 14.4186 19.5076 14.2788 19.6803 14.1772C19.8915 14.0528 20.1213 13.9633 20.361 13.9119C20.6551 13.8465 20.9559 13.8151 21.2572 13.8181C21.5106 13.819 21.7637 13.8372 22.0147 13.8725C22.2857 13.9091 22.5539 13.9646 22.8172 14.0384C23.0851 14.1127 23.347 14.2067 23.601 14.3197C23.8474 14.4295 24.0831 14.562 24.305 14.7153V12.0313C23.8429 11.8564 23.3637 11.7307 22.8753 11.6563C22.2855 11.5704 21.6901 11.53 21.0941 11.5353C20.4426 11.5318 19.7931 11.6058 19.1591 11.7556C18.586 11.8866 18.0411 12.1193 17.5503 12.4428C17.0944 12.7465 16.7179 13.1551 16.4525 13.6344C16.1712 14.1666 16.0321 14.7623 16.0485 15.3641C16.0277 16.1598 16.2898 16.9371 16.7881 17.5578C17.3996 18.246 18.1706 18.7736 19.0335 19.0944C19.4272 19.2569 19.7944 19.4159 20.135 19.5716C20.4423 19.7083 20.7377 19.8704 21.0181 20.0563C21.2443 20.2034 21.4429 20.389 21.605 20.6047C21.7475 20.8003 21.8232 21.0367 21.8206 21.2788C21.8219 21.4601 21.7754 21.6386 21.6856 21.7963C21.5859 21.9656 21.4458 22.1077 21.2778 22.2097C21.0676 22.3379 20.8376 22.4303 20.5972 22.4834C20.284 22.5535 19.9637 22.5865 19.6428 22.5819C19.0131 22.5807 18.3884 22.4697 17.7969 22.2538C17.1789 22.0307 16.6058 21.699 16.1047 21.2741ZM11.2728 14.1134H15.0228V11.7444H4.56689V14.1134H8.30002V24.6641H11.2728V14.1134Z" fill="white"/>
</svg>
